<mxfile host="Electron" agent="Mozilla/5.0 (Macintosh; Intel Mac OS X 10_15_7) AppleWebKit/537.36 (KHTML, like Gecko) draw.io/27.0.2 Chrome/134.0.6998.205 Electron/35.3.0 Safari/537.36" version="27.0.2">
  <diagram name="Страница — 1" id="YBLIJkrBB12wZmon3wnt">
    <mxGraphModel dx="1234" dy="916" grid="1" gridSize="10" guides="1" tooltips="1" connect="1" arrows="1" fold="1" page="1" pageScale="1" pageWidth="827" pageHeight="1169" math="0" shadow="0">
      <root>
        <mxCell id="0" />
        <mxCell id="1" parent="0" />
        <mxCell id="cmHKpC3XxgrT28S-xg-P-44" style="edgeStyle=orthogonalEdgeStyle;rounded=1;orthogonalLoop=1;jettySize=auto;html=1;entryX=1;entryY=0.5;entryDx=0;entryDy=0;curved=0;endArrow=none;startFill=0;" edge="1" parent="1" source="cmHKpC3XxgrT28S-xg-P-2" target="cmHKpC3XxgrT28S-xg-P-40">
          <mxGeometry relative="1" as="geometry" />
        </mxCell>
        <mxCell id="cmHKpC3XxgrT28S-xg-P-45" style="edgeStyle=orthogonalEdgeStyle;rounded=1;orthogonalLoop=1;jettySize=auto;html=1;entryX=1;entryY=0.5;entryDx=0;entryDy=0;curved=0;endArrow=none;startFill=0;" edge="1" parent="1" source="cmHKpC3XxgrT28S-xg-P-2" target="cmHKpC3XxgrT28S-xg-P-42">
          <mxGeometry relative="1" as="geometry" />
        </mxCell>
        <mxCell id="cmHKpC3XxgrT28S-xg-P-54" style="edgeStyle=orthogonalEdgeStyle;rounded=1;orthogonalLoop=1;jettySize=auto;html=1;entryX=1;entryY=0.5;entryDx=0;entryDy=0;curved=0;endArrow=none;startFill=0;" edge="1" parent="1" source="cmHKpC3XxgrT28S-xg-P-2" target="cmHKpC3XxgrT28S-xg-P-43">
          <mxGeometry relative="1" as="geometry" />
        </mxCell>
        <mxCell id="cmHKpC3XxgrT28S-xg-P-2" value="Запчасть" style="rounded=0;whiteSpace=wrap;html=1;" vertex="1" parent="1">
          <mxGeometry x="450" y="360" width="120" height="60" as="geometry" />
        </mxCell>
        <mxCell id="cmHKpC3XxgrT28S-xg-P-3" value="Техника" style="whiteSpace=wrap;html=1;" vertex="1" parent="1">
          <mxGeometry x="220" y="585" width="120" height="60" as="geometry" />
        </mxCell>
        <mxCell id="cmHKpC3XxgrT28S-xg-P-12" style="edgeStyle=orthogonalEdgeStyle;rounded=1;orthogonalLoop=1;jettySize=auto;html=1;entryX=1;entryY=0.5;entryDx=0;entryDy=0;endArrow=none;startFill=0;curved=0;" edge="1" parent="1" source="cmHKpC3XxgrT28S-xg-P-4" target="cmHKpC3XxgrT28S-xg-P-6">
          <mxGeometry relative="1" as="geometry" />
        </mxCell>
        <mxCell id="cmHKpC3XxgrT28S-xg-P-13" style="edgeStyle=orthogonalEdgeStyle;rounded=1;orthogonalLoop=1;jettySize=auto;html=1;entryX=1;entryY=0.5;entryDx=0;entryDy=0;endArrow=none;startFill=0;curved=0;" edge="1" parent="1" source="cmHKpC3XxgrT28S-xg-P-4" target="cmHKpC3XxgrT28S-xg-P-7">
          <mxGeometry relative="1" as="geometry" />
        </mxCell>
        <mxCell id="cmHKpC3XxgrT28S-xg-P-14" style="edgeStyle=orthogonalEdgeStyle;rounded=1;orthogonalLoop=1;jettySize=auto;html=1;entryX=1;entryY=0.5;entryDx=0;entryDy=0;endArrow=none;startFill=0;curved=0;" edge="1" parent="1" source="cmHKpC3XxgrT28S-xg-P-4" target="cmHKpC3XxgrT28S-xg-P-8">
          <mxGeometry relative="1" as="geometry" />
        </mxCell>
        <mxCell id="cmHKpC3XxgrT28S-xg-P-15" style="edgeStyle=orthogonalEdgeStyle;rounded=1;orthogonalLoop=1;jettySize=auto;html=1;entryX=1;entryY=0.5;entryDx=0;entryDy=0;endArrow=none;startFill=0;curved=0;" edge="1" parent="1" source="cmHKpC3XxgrT28S-xg-P-4" target="cmHKpC3XxgrT28S-xg-P-9">
          <mxGeometry relative="1" as="geometry" />
        </mxCell>
        <mxCell id="cmHKpC3XxgrT28S-xg-P-17" style="edgeStyle=orthogonalEdgeStyle;rounded=1;orthogonalLoop=1;jettySize=auto;html=1;entryX=1;entryY=0.5;entryDx=0;entryDy=0;endArrow=none;startFill=0;curved=0;" edge="1" parent="1" source="cmHKpC3XxgrT28S-xg-P-4" target="cmHKpC3XxgrT28S-xg-P-16">
          <mxGeometry relative="1" as="geometry" />
        </mxCell>
        <mxCell id="cmHKpC3XxgrT28S-xg-P-59" style="edgeStyle=orthogonalEdgeStyle;rounded=1;orthogonalLoop=1;jettySize=auto;html=1;entryX=0;entryY=0.5;entryDx=0;entryDy=0;curved=0;" edge="1" parent="1" source="cmHKpC3XxgrT28S-xg-P-4" target="cmHKpC3XxgrT28S-xg-P-47">
          <mxGeometry relative="1" as="geometry">
            <Array as="points">
              <mxPoint x="170" y="340" />
            </Array>
          </mxGeometry>
        </mxCell>
        <mxCell id="cmHKpC3XxgrT28S-xg-P-60" value="1" style="edgeLabel;html=1;align=center;verticalAlign=middle;resizable=0;points=[];" vertex="1" connectable="0" parent="cmHKpC3XxgrT28S-xg-P-59">
          <mxGeometry x="-0.1467" y="-2" relative="1" as="geometry">
            <mxPoint as="offset" />
          </mxGeometry>
        </mxCell>
        <mxCell id="cmHKpC3XxgrT28S-xg-P-4" value="Сотрудник" style="whiteSpace=wrap;html=1;" vertex="1" parent="1">
          <mxGeometry x="90" y="470" width="120" height="60" as="geometry" />
        </mxCell>
        <mxCell id="cmHKpC3XxgrT28S-xg-P-34" style="edgeStyle=orthogonalEdgeStyle;rounded=1;orthogonalLoop=1;jettySize=auto;html=1;entryX=1;entryY=0.5;entryDx=0;entryDy=0;endArrow=none;startFill=0;curved=0;" edge="1" parent="1" source="cmHKpC3XxgrT28S-xg-P-5" target="cmHKpC3XxgrT28S-xg-P-28">
          <mxGeometry relative="1" as="geometry" />
        </mxCell>
        <mxCell id="cmHKpC3XxgrT28S-xg-P-35" style="edgeStyle=orthogonalEdgeStyle;rounded=1;orthogonalLoop=1;jettySize=auto;html=1;entryX=1;entryY=0.5;entryDx=0;entryDy=0;endArrow=none;startFill=0;curved=0;" edge="1" parent="1" source="cmHKpC3XxgrT28S-xg-P-5" target="cmHKpC3XxgrT28S-xg-P-31">
          <mxGeometry relative="1" as="geometry" />
        </mxCell>
        <mxCell id="cmHKpC3XxgrT28S-xg-P-36" style="edgeStyle=orthogonalEdgeStyle;rounded=1;orthogonalLoop=1;jettySize=auto;html=1;entryX=1;entryY=0.5;entryDx=0;entryDy=0;endArrow=none;startFill=0;curved=0;" edge="1" parent="1" source="cmHKpC3XxgrT28S-xg-P-5" target="cmHKpC3XxgrT28S-xg-P-33">
          <mxGeometry relative="1" as="geometry" />
        </mxCell>
        <mxCell id="cmHKpC3XxgrT28S-xg-P-37" style="edgeStyle=orthogonalEdgeStyle;rounded=1;orthogonalLoop=1;jettySize=auto;html=1;entryX=1;entryY=0.5;entryDx=0;entryDy=0;endArrow=none;startFill=0;curved=0;" edge="1" parent="1" source="cmHKpC3XxgrT28S-xg-P-5" target="cmHKpC3XxgrT28S-xg-P-30">
          <mxGeometry relative="1" as="geometry" />
        </mxCell>
        <mxCell id="cmHKpC3XxgrT28S-xg-P-38" style="edgeStyle=orthogonalEdgeStyle;rounded=1;orthogonalLoop=1;jettySize=auto;html=1;entryX=1;entryY=0.5;entryDx=0;entryDy=0;endArrow=none;startFill=0;curved=0;" edge="1" parent="1" source="cmHKpC3XxgrT28S-xg-P-5" target="cmHKpC3XxgrT28S-xg-P-32">
          <mxGeometry relative="1" as="geometry" />
        </mxCell>
        <mxCell id="cmHKpC3XxgrT28S-xg-P-39" style="edgeStyle=orthogonalEdgeStyle;rounded=1;orthogonalLoop=1;jettySize=auto;html=1;entryX=1;entryY=0.5;entryDx=0;entryDy=0;endArrow=none;startFill=0;curved=0;" edge="1" parent="1" source="cmHKpC3XxgrT28S-xg-P-5" target="cmHKpC3XxgrT28S-xg-P-29">
          <mxGeometry relative="1" as="geometry" />
        </mxCell>
        <mxCell id="cmHKpC3XxgrT28S-xg-P-78" style="edgeStyle=orthogonalEdgeStyle;rounded=1;orthogonalLoop=1;jettySize=auto;html=1;entryX=1;entryY=0.5;entryDx=0;entryDy=0;endArrow=none;startFill=0;curved=0;" edge="1" parent="1" source="cmHKpC3XxgrT28S-xg-P-5" target="cmHKpC3XxgrT28S-xg-P-41">
          <mxGeometry relative="1" as="geometry" />
        </mxCell>
        <mxCell id="cmHKpC3XxgrT28S-xg-P-5" value="Процесс&lt;div&gt;ремонта&lt;/div&gt;" style="whiteSpace=wrap;html=1;" vertex="1" parent="1">
          <mxGeometry x="676.5" y="95" width="120" height="60" as="geometry" />
        </mxCell>
        <mxCell id="cmHKpC3XxgrT28S-xg-P-6" value="Должность" style="ellipse;whiteSpace=wrap;html=1;" vertex="1" parent="1">
          <mxGeometry x="10" y="290" width="120" height="80" as="geometry" />
        </mxCell>
        <mxCell id="cmHKpC3XxgrT28S-xg-P-7" value="Подразделение" style="ellipse;whiteSpace=wrap;html=1;" vertex="1" parent="1">
          <mxGeometry x="10" y="200" width="120" height="80" as="geometry" />
        </mxCell>
        <mxCell id="cmHKpC3XxgrT28S-xg-P-8" value="Дата окончания работы" style="ellipse;whiteSpace=wrap;html=1;" vertex="1" parent="1">
          <mxGeometry x="10" y="110" width="120" height="80" as="geometry" />
        </mxCell>
        <mxCell id="cmHKpC3XxgrT28S-xg-P-9" value="Дата начала&lt;div&gt;работы&lt;/div&gt;" style="ellipse;whiteSpace=wrap;html=1;" vertex="1" parent="1">
          <mxGeometry x="10" y="20" width="120" height="80" as="geometry" />
        </mxCell>
        <mxCell id="cmHKpC3XxgrT28S-xg-P-16" value="&lt;u&gt;ФИО&lt;/u&gt;" style="ellipse;whiteSpace=wrap;html=1;" vertex="1" parent="1">
          <mxGeometry x="10" y="380" width="120" height="80" as="geometry" />
        </mxCell>
        <mxCell id="cmHKpC3XxgrT28S-xg-P-67" style="edgeStyle=orthogonalEdgeStyle;rounded=1;orthogonalLoop=1;jettySize=auto;html=1;entryX=0.5;entryY=1;entryDx=0;entryDy=0;endArrow=none;startFill=0;curved=0;" edge="1" parent="1" source="cmHKpC3XxgrT28S-xg-P-18" target="cmHKpC3XxgrT28S-xg-P-3">
          <mxGeometry relative="1" as="geometry" />
        </mxCell>
        <mxCell id="cmHKpC3XxgrT28S-xg-P-18" value="&lt;u&gt;Инв. номер&lt;/u&gt;" style="ellipse;whiteSpace=wrap;html=1;" vertex="1" parent="1">
          <mxGeometry x="70" y="640" width="120" height="80" as="geometry" />
        </mxCell>
        <mxCell id="cmHKpC3XxgrT28S-xg-P-66" style="edgeStyle=orthogonalEdgeStyle;rounded=1;orthogonalLoop=1;jettySize=auto;html=1;entryX=0.5;entryY=1;entryDx=0;entryDy=0;endArrow=none;startFill=0;curved=0;" edge="1" parent="1" source="cmHKpC3XxgrT28S-xg-P-19" target="cmHKpC3XxgrT28S-xg-P-3">
          <mxGeometry relative="1" as="geometry" />
        </mxCell>
        <mxCell id="cmHKpC3XxgrT28S-xg-P-19" value="Название&lt;span style=&quot;color: rgba(0, 0, 0, 0); font-family: monospace; font-size: 0px; text-align: start; text-wrap-mode: nowrap;&quot;&gt;%3CmxGraphModel%3E%3Croot%3E%3CmxCell%20id%3D%220%22%2F%3E%3CmxCell%20id%3D%221%22%20parent%3D%220%22%2F%3E%3CmxCell%20id%3D%222%22%20value%3D%22%D0%94%D0%B0%D1%82%D0%B0%20%D0%BE%D0%BA%D0%BE%D0%BD%D1%87%D0%B0%D0%BD%D0%B8%D1%8F%20%D1%80%D0%B0%D0%B1%D0%BE%D1%82%D1%8B%22%20style%3D%22ellipse%3BwhiteSpace%3Dwrap%3Bhtml%3D1%3B%22%20vertex%3D%221%22%20parent%3D%221%22%3E%3CmxGeometry%20x%3D%2220%22%20y%3D%22120%22%20width%3D%22120%22%20height%3D%2280%22%20as%3D%22geometry%22%2F%3E%3C%2FmxCell%3E%3C%2Froot%3E%3C%2FmxGraphModel%3E&lt;/span&gt;" style="ellipse;whiteSpace=wrap;html=1;" vertex="1" parent="1">
          <mxGeometry x="70" y="730" width="120" height="80" as="geometry" />
        </mxCell>
        <mxCell id="cmHKpC3XxgrT28S-xg-P-68" style="edgeStyle=orthogonalEdgeStyle;rounded=1;orthogonalLoop=1;jettySize=auto;html=1;entryX=0.5;entryY=1;entryDx=0;entryDy=0;endArrow=none;startFill=0;curved=0;" edge="1" parent="1" source="cmHKpC3XxgrT28S-xg-P-20" target="cmHKpC3XxgrT28S-xg-P-3">
          <mxGeometry relative="1" as="geometry" />
        </mxCell>
        <mxCell id="cmHKpC3XxgrT28S-xg-P-20" value="модель" style="ellipse;whiteSpace=wrap;html=1;" vertex="1" parent="1">
          <mxGeometry x="70" y="820" width="120" height="80" as="geometry" />
        </mxCell>
        <mxCell id="cmHKpC3XxgrT28S-xg-P-69" style="edgeStyle=orthogonalEdgeStyle;rounded=1;orthogonalLoop=1;jettySize=auto;html=1;endArrow=none;startFill=0;curved=0;" edge="1" parent="1" source="cmHKpC3XxgrT28S-xg-P-21" target="cmHKpC3XxgrT28S-xg-P-3">
          <mxGeometry relative="1" as="geometry">
            <mxPoint x="280" y="650" as="targetPoint" />
          </mxGeometry>
        </mxCell>
        <mxCell id="cmHKpC3XxgrT28S-xg-P-21" value="год выпуска" style="ellipse;whiteSpace=wrap;html=1;" vertex="1" parent="1">
          <mxGeometry x="70" y="910" width="120" height="80" as="geometry" />
        </mxCell>
        <mxCell id="cmHKpC3XxgrT28S-xg-P-70" style="edgeStyle=orthogonalEdgeStyle;rounded=1;orthogonalLoop=1;jettySize=auto;html=1;entryX=0.5;entryY=1;entryDx=0;entryDy=0;endArrow=none;startFill=0;curved=0;" edge="1" parent="1" source="cmHKpC3XxgrT28S-xg-P-22" target="cmHKpC3XxgrT28S-xg-P-3">
          <mxGeometry relative="1" as="geometry" />
        </mxCell>
        <mxCell id="cmHKpC3XxgrT28S-xg-P-22" value="пренадлежность" style="ellipse;whiteSpace=wrap;html=1;" vertex="1" parent="1">
          <mxGeometry x="70" y="1000" width="120" height="80" as="geometry" />
        </mxCell>
        <mxCell id="cmHKpC3XxgrT28S-xg-P-28" value="Вид ремонта" style="ellipse;whiteSpace=wrap;html=1;" vertex="1" parent="1">
          <mxGeometry x="590.5" y="255" width="120" height="80" as="geometry" />
        </mxCell>
        <mxCell id="cmHKpC3XxgrT28S-xg-P-29" value="стоимость запчастей" style="ellipse;whiteSpace=wrap;html=1;" vertex="1" parent="1">
          <mxGeometry x="590.5" y="700" width="120" height="80" as="geometry" />
        </mxCell>
        <mxCell id="cmHKpC3XxgrT28S-xg-P-30" value="Данные мастера" style="ellipse;whiteSpace=wrap;html=1;" vertex="1" parent="1">
          <mxGeometry x="590" y="520" width="120" height="80" as="geometry" />
        </mxCell>
        <mxCell id="cmHKpC3XxgrT28S-xg-P-31" value="Данные админа" style="ellipse;whiteSpace=wrap;html=1;" vertex="1" parent="1">
          <mxGeometry x="590.5" y="340" width="120" height="80" as="geometry" />
        </mxCell>
        <mxCell id="cmHKpC3XxgrT28S-xg-P-32" value="запчасти" style="ellipse;whiteSpace=wrap;html=1;" vertex="1" parent="1">
          <mxGeometry x="590.5" y="610" width="120" height="80" as="geometry" />
        </mxCell>
        <mxCell id="cmHKpC3XxgrT28S-xg-P-33" value="Данные работника" style="ellipse;whiteSpace=wrap;html=1;" vertex="1" parent="1">
          <mxGeometry x="590.5" y="430" width="120" height="80" as="geometry" />
        </mxCell>
        <mxCell id="cmHKpC3XxgrT28S-xg-P-40" value="&lt;u&gt;ID&lt;/u&gt;" style="ellipse;whiteSpace=wrap;html=1;" vertex="1" parent="1">
          <mxGeometry x="360" y="435" width="120" height="80" as="geometry" />
        </mxCell>
        <mxCell id="cmHKpC3XxgrT28S-xg-P-41" value="&lt;u&gt;ID&lt;/u&gt;" style="ellipse;whiteSpace=wrap;html=1;" vertex="1" parent="1">
          <mxGeometry x="590.5" y="165" width="120" height="80" as="geometry" />
        </mxCell>
        <mxCell id="cmHKpC3XxgrT28S-xg-P-42" value="Название&lt;span style=&quot;color: rgba(0, 0, 0, 0); font-family: monospace; font-size: 0px; text-align: start; text-wrap-mode: nowrap;&quot;&gt;%3CmxGraphModel%3E%3Croot%3E%3CmxCell%20id%3D%220%22%2F%3E%3CmxCell%20id%3D%221%22%20parent%3D%220%22%2F%3E%3CmxCell%20id%3D%222%22%20value%3D%22%D0%94%D0%B0%D1%82%D0%B0%20%D0%BE%D0%BA%D0%BE%D0%BD%D1%87%D0%B0%D0%BD%D0%B8%D1%8F%20%D1%80%D0%B0%D0%B1%D0%BE%D1%82%D1%8B%22%20style%3D%22ellipse%3BwhiteSpace%3Dwrap%3Bhtml%3D1%3B%22%20vertex%3D%221%22%20parent%3D%221%22%3E%3CmxGeometry%20x%3D%2220%22%20y%3D%22120%22%20width%3D%22120%22%20height%3D%2280%22%20as%3D%22geometry%22%2F%3E%3C%2FmxCell%3E%3C%2Froot%3E%3C%2FmxGraphModel%3E&lt;/span&gt;" style="ellipse;whiteSpace=wrap;html=1;" vertex="1" parent="1">
          <mxGeometry x="360" y="530" width="120" height="80" as="geometry" />
        </mxCell>
        <mxCell id="cmHKpC3XxgrT28S-xg-P-43" value="Стоимость" style="ellipse;whiteSpace=wrap;html=1;" vertex="1" parent="1">
          <mxGeometry x="360" y="632.5" width="120" height="80" as="geometry" />
        </mxCell>
        <mxCell id="cmHKpC3XxgrT28S-xg-P-50" style="edgeStyle=orthogonalEdgeStyle;rounded=1;orthogonalLoop=1;jettySize=auto;html=1;curved=0;exitX=1;exitY=0.5;exitDx=0;exitDy=0;" edge="1" parent="1" source="cmHKpC3XxgrT28S-xg-P-47" target="cmHKpC3XxgrT28S-xg-P-5">
          <mxGeometry relative="1" as="geometry">
            <mxPoint x="610" y="5" as="sourcePoint" />
            <Array as="points">
              <mxPoint x="230" y="340" />
              <mxPoint x="230" y="125" />
            </Array>
          </mxGeometry>
        </mxCell>
        <mxCell id="cmHKpC3XxgrT28S-xg-P-52" value="m" style="edgeLabel;html=1;align=center;verticalAlign=middle;resizable=0;points=[];" vertex="1" connectable="0" parent="cmHKpC3XxgrT28S-xg-P-50">
          <mxGeometry x="-0.3464" y="-1" relative="1" as="geometry">
            <mxPoint as="offset" />
          </mxGeometry>
        </mxCell>
        <mxCell id="cmHKpC3XxgrT28S-xg-P-61" style="edgeStyle=orthogonalEdgeStyle;rounded=0;orthogonalLoop=1;jettySize=auto;html=1;entryX=0;entryY=0.5;entryDx=0;entryDy=0;" edge="1" parent="1" source="cmHKpC3XxgrT28S-xg-P-47" target="cmHKpC3XxgrT28S-xg-P-56">
          <mxGeometry relative="1" as="geometry" />
        </mxCell>
        <mxCell id="cmHKpC3XxgrT28S-xg-P-74" value="1" style="edgeLabel;html=1;align=center;verticalAlign=middle;resizable=0;points=[];" vertex="1" connectable="0" parent="cmHKpC3XxgrT28S-xg-P-61">
          <mxGeometry x="-0.16" relative="1" as="geometry">
            <mxPoint as="offset" />
          </mxGeometry>
        </mxCell>
        <mxCell id="cmHKpC3XxgrT28S-xg-P-72" style="edgeStyle=orthogonalEdgeStyle;rounded=1;orthogonalLoop=1;jettySize=auto;html=1;entryX=0.5;entryY=0;entryDx=0;entryDy=0;curved=0;" edge="1" parent="1" source="cmHKpC3XxgrT28S-xg-P-47" target="cmHKpC3XxgrT28S-xg-P-71">
          <mxGeometry relative="1" as="geometry" />
        </mxCell>
        <mxCell id="cmHKpC3XxgrT28S-xg-P-76" value="1" style="edgeLabel;html=1;align=center;verticalAlign=middle;resizable=0;points=[];" vertex="1" connectable="0" parent="cmHKpC3XxgrT28S-xg-P-72">
          <mxGeometry x="-0.0909" y="1" relative="1" as="geometry">
            <mxPoint as="offset" />
          </mxGeometry>
        </mxCell>
        <mxCell id="cmHKpC3XxgrT28S-xg-P-47" value="инициирует" style="rhombus;whiteSpace=wrap;html=1;" vertex="1" parent="1">
          <mxGeometry x="190" y="300" width="80" height="80" as="geometry" />
        </mxCell>
        <mxCell id="cmHKpC3XxgrT28S-xg-P-62" style="edgeStyle=orthogonalEdgeStyle;rounded=1;orthogonalLoop=1;jettySize=auto;html=1;entryX=0.5;entryY=0;entryDx=0;entryDy=0;curved=0;" edge="1" parent="1" source="cmHKpC3XxgrT28S-xg-P-56" target="cmHKpC3XxgrT28S-xg-P-2">
          <mxGeometry relative="1" as="geometry" />
        </mxCell>
        <mxCell id="cmHKpC3XxgrT28S-xg-P-75" value="n" style="edgeLabel;html=1;align=center;verticalAlign=middle;resizable=0;points=[];" vertex="1" connectable="0" parent="cmHKpC3XxgrT28S-xg-P-62">
          <mxGeometry x="-0.3385" y="-2" relative="1" as="geometry">
            <mxPoint as="offset" />
          </mxGeometry>
        </mxCell>
        <mxCell id="cmHKpC3XxgrT28S-xg-P-56" value="используя" style="rhombus;whiteSpace=wrap;html=1;" vertex="1" parent="1">
          <mxGeometry x="320" y="300" width="80" height="80" as="geometry" />
        </mxCell>
        <mxCell id="cmHKpC3XxgrT28S-xg-P-73" style="edgeStyle=orthogonalEdgeStyle;rounded=0;orthogonalLoop=1;jettySize=auto;html=1;" edge="1" parent="1" source="cmHKpC3XxgrT28S-xg-P-71" target="cmHKpC3XxgrT28S-xg-P-3">
          <mxGeometry relative="1" as="geometry" />
        </mxCell>
        <mxCell id="cmHKpC3XxgrT28S-xg-P-77" value="n" style="edgeLabel;html=1;align=center;verticalAlign=middle;resizable=0;points=[];" vertex="1" connectable="0" parent="cmHKpC3XxgrT28S-xg-P-73">
          <mxGeometry x="-0.3231" y="3" relative="1" as="geometry">
            <mxPoint as="offset" />
          </mxGeometry>
        </mxCell>
        <mxCell id="cmHKpC3XxgrT28S-xg-P-71" value="ремонтируя" style="rhombus;whiteSpace=wrap;html=1;" vertex="1" parent="1">
          <mxGeometry x="240" y="440" width="80" height="80" as="geometry" />
        </mxCell>
      </root>
    </mxGraphModel>
  </diagram>
</mxfile>
